# Apple ModelIO OBJ File: brick
mtllib brick.mtl
g pCube1_initialShadingGroup
v -0.078569 0.005431 0.182165
v -0.096009 0.012655 0.182165
v -0.096009 0.012655 -0.13487
v -0.078569 0.005431 -0.13487
v -0.103233 0.030095 0.182165
v -0.103233 0.030095 -0.13487
v -0.078569 0.030095 0.206829
v -0.078569 0.012655 0.199605
v 0.118766 0.012655 0.199605
v 0.118766 0.030095 0.206829
v 0.118766 0.005431 0.182165
v -0.096009 0.030095 0.199605
v -0.096009 0.240251 0.199605
v -0.103233 0.240251 0.182165
v -0.078569 0.240251 0.206829
v 0.14343 0.030095 0.182165
v 0.136206 0.012655 0.182165
v 0.136206 0.012655 -0.13487
v 0.14343 0.030095 -0.13487
v 0.118766 0.005431 -0.13487
v 0.136206 0.030095 0.199605
v 0.136206 0.240251 0.199605
v 0.118766 0.240251 0.206829
v 0.14343 0.240251 0.182165
v -0.096009 0.257691 0.182165
v -0.096009 0.257691 -0.13487
v -0.103233 0.240251 -0.13487
v -0.078569 0.264915 0.182165
v -0.078569 0.264915 -0.13487
v -0.078569 0.257691 0.199605
v 0.118766 0.257691 0.199605
v 0.118766 0.264915 0.182165
v 0.136206 0.257691 0.182165
v 0.136206 0.257691 -0.13487
v 0.118766 0.264915 -0.13487
v 0.14343 0.240251 -0.13487
v -0.096009 0.240251 -0.15231
v -0.096009 0.030095 -0.15231
v -0.078569 0.240251 -0.159534
v -0.078569 0.030095 -0.159534
v -0.078569 0.257691 -0.15231
v 0.118766 0.257691 -0.15231
v 0.118766 0.240251 -0.159534
v 0.136206 0.240251 -0.15231
v 0.136206 0.030095 -0.15231
v 0.118766 0.030095 -0.159534
v -0.078569 0.012655 -0.15231
v 0.118766 0.012655 -0.15231
v -0.092803 0.01586 0.1964
v 0.133001 0.01586 0.1964
v -0.092803 0.254486 0.1964
v 0.133001 0.254486 0.1964
v -0.092803 0.254486 -0.149105
v 0.133001 0.254486 -0.149105
v -0.092803 0.01586 -0.149105
v 0.133001 0.01586 -0.149105
vn -0.033039 -0.999233 0.020998
vn -0.381139 -0.924419 0.013516
vn -0.381139 -0.924419 -0.013516
vn -0.033039 -0.999233 -0.020998
vn -0.924419 -0.38114 0.013516
vn -0.999293 -0.031178 0.021032
vn -0.999293 -0.031178 -0.021032
vn -0.924419 -0.38114 -0.013516
vn -0.032763 -0.030867 0.998986
vn -0.021207 -0.38023 0.924649
vn 0.021207 -0.38023 0.924649
vn 0.032763 -0.030867 0.998986
vn -0.021207 -0.924649 0.380229
vn 0.033039 -0.999233 0.020998
vn 0.021207 -0.924649 0.380229
vn -0.924616 -0.019989 0.380376
vn -0.924616 0.019989 0.380376
vn -0.999293 0.031178 0.021032
vn -0.380375 -0.019989 0.924616
vn -0.032763 0.030867 0.998986
vn -0.380375 0.019989 0.924616
vn 0.999293 -0.031178 0.021032
vn 0.924419 -0.38114 0.013516
vn 0.924419 -0.38114 -0.013516
vn 0.999293 -0.031178 -0.021032
vn 0.381139 -0.924419 0.013516
vn 0.033039 -0.999233 -0.020998
vn 0.381139 -0.924419 -0.013516
vn 0.380375 -0.019989 0.924616
vn 0.380375 0.019989 0.924616
vn 0.032763 0.030867 0.998986
vn 0.924616 -0.019989 0.380376
vn 0.999293 0.031178 0.021032
vn 0.924616 0.019989 0.380376
vn -0.924419 0.38114 0.013516
vn -0.924419 0.38114 -0.013516
vn -0.999293 0.031178 -0.021032
vn -0.381139 0.924419 0.013516
vn -0.033039 0.999233 0.020998
vn -0.033039 0.999233 -0.020998
vn -0.381139 0.924419 -0.013516
vn -0.021207 0.924649 0.380229
vn 0.021207 0.924649 0.380229
vn 0.033039 0.999233 0.020998
vn -0.021207 0.380229 0.924649
vn 0.021207 0.380229 0.924649
vn 0.381139 0.924419 0.013516
vn 0.381139 0.924419 -0.013516
vn 0.033039 0.999233 -0.020998
vn 0.924419 0.38114 0.013516
vn 0.999293 0.031178 -0.021032
vn 0.924419 0.38114 -0.013516
vn -0.924616 0.019989 -0.380376
vn -0.924616 -0.019989 -0.380376
vn -0.380375 0.019989 -0.924616
vn -0.032763 0.030867 -0.998986
vn -0.032763 -0.030867 -0.998986
vn -0.380375 -0.019989 -0.924616
vn -0.021207 0.38023 -0.924649
vn 0.021207 0.38023 -0.924649
vn 0.032763 0.030867 -0.998986
vn -0.021207 0.924649 -0.38023
vn 0.021207 0.924649 -0.38023
vn 0.380375 0.019989 -0.924616
vn 0.380375 -0.019989 -0.924616
vn 0.032763 -0.030867 -0.998986
vn 0.924616 0.019989 -0.380376
vn 0.924616 -0.019989 -0.380376
vn -0.021207 -0.924649 -0.38023
vn 0.021207 -0.924649 -0.38023
vn -0.021207 -0.38023 -0.924649
vn 0.021207 -0.38023 -0.924649
vn -0.887919 -0.325269 0.32527
vn -0.325269 -0.887919 0.325269
vn -0.325269 -0.325269 0.887919
vn 0.325269 -0.887919 0.325268
vn 0.887919 -0.325269 0.32527
vn 0.325269 -0.325269 0.887919
vn -0.325269 0.887919 0.325269
vn -0.887919 0.325269 0.32527
vn -0.32527 0.325269 0.887919
vn 0.887919 0.325269 0.32527
vn 0.325269 0.887919 0.32527
vn 0.32527 0.325269 0.887919
vn -0.32527 0.32527 -0.887919
vn -0.887918 0.32527 -0.32527
vn -0.325269 0.887919 -0.32527
vn 0.887919 0.325269 -0.32527
vn 0.32527 0.32527 -0.887918
vn 0.325269 0.887919 -0.32527
vn -0.325269 -0.887919 -0.325269
vn -0.887918 -0.32527 -0.32527
vn -0.325269 -0.32527 -0.887919
vn 0.887919 -0.325269 -0.32527
vn 0.325269 -0.887919 -0.325269
vn 0.325269 -0.32527 -0.887919
vt 0.025064 0.444355
vt 0.001992 0.444355
vt 0.001992 0.024942
vt 0.025064 0.024942
vt 0.315968 0.024942
vt 0.33904 0.024942
vt 0.33904 0.444355
vt 0.315968 0.444355
vt 0.40054 0.49449
vt 0.40054 0.471418
vt 0.661599 0.471418
vt 0.661599 0.49449
vt 0.025064 0.467427
vt 0.286123 0.444355
vt 0.286123 0.467427
vt 0.33904 0.00187
vt 0.617061 0.00187
vt 0.617061 0.024942
vt 0.377468 0.49449
vt 0.40054 0.772511
vt 0.377468 0.772511
vt 0.670362 0.444355
vt 0.64729 0.444355
vt 0.64729 0.024942
vt 0.670362 0.024942
vt 0.309194 0.444355
vt 0.286123 0.024942
vt 0.309194 0.024942
vt 0.684671 0.49449
vt 0.684671 0.772511
vt 0.661599 0.772511
vt 0.670362 0.467427
vt 0.948383 0.444355
vt 0.948383 0.467427
vt 0.640133 0.024942
vt 0.640133 0.444355
vt 0.617061 0.444355
vt 0.690806 0.49449
vt 0.713878 0.49449
vt 0.713878 0.913904
vt 0.690806 0.913904
vt 0.713878 0.471418
vt 0.974936 0.471418
vt 0.974936 0.49449
vt 0.40054 0.795583
vt 0.661599 0.795583
vt 0.998008 0.49449
vt 0.998008 0.913904
vt 0.974936 0.913904
vt 0.971455 0.444355
vt 0.948383 0.024942
vt 0.971455 0.024942
vt 0.617061 0.467427
vt 0.33904 0.467427
vt 0.064131 0.49449
vt 0.087203 0.49449
vt 0.087203 0.772511
vt 0.064131 0.772511
vt 0.087203 0.471418
vt 0.348261 0.471418
vt 0.348261 0.49449
vt 0.713878 0.936975
vt 0.974936 0.936975
vt 0.371333 0.49449
vt 0.371333 0.772511
vt 0.348261 0.772511
vt 0.948383 0.00187
vt 0.670362 0.00187
vt 0.025064 0.00187
vt 0.286123 0.00187
vt 0.087203 0.795583
vt 0.348261 0.795583
vt 0.320209 0.006111
vt 0.006232 0.463187
vt 0.381709 0.475659
vt 0.304954 0.463187
vt 0.651531 0.463187
vt 0.68043 0.475659
vt 0.695046 0.475659
vt 0.635893 0.006111
vt 0.381709 0.791343
vt 0.967214 0.463187
vt 0.993768 0.475659
vt 0.68043 0.791343
vt 0.068371 0.475659
vt 0.635893 0.463187
vt 0.695046 0.932735
vt 0.967214 0.006111
vt 0.367093 0.475659
vt 0.993768 0.932735
vt 0.006232 0.006111
vt 0.320209 0.463187
vt 0.068371 0.791343
vt 0.651531 0.006111
vt 0.304954 0.006111
vt 0.367093 0.791343
usemtl initialShadingGroup
f 1/1/1 2/2/2 3/3/3
f 1/1/1 3/3/3 4/4/4
f 2/5/5 5/6/6 6/7/7
f 2/5/5 6/7/7 3/8/8
f 7/9/9 8/10/10 9/11/11
f 7/9/9 9/11/11 10/12/12
f 8/13/13 1/1/1 11/14/14
f 8/13/13 11/14/14 9/15/15
f 5/6/6 12/16/16 13/17/17
f 5/6/6 13/17/17 14/18/18
f 12/19/19 7/9/9 15/20/20
f 12/19/19 15/20/20 13/21/21
f 16/22/22 17/23/23 18/24/24
f 16/22/22 18/24/24 19/25/25
f 17/26/26 11/14/14 20/27/27
f 17/26/26 20/27/27 18/28/28
f 10/12/12 21/29/29 22/30/30
f 10/12/12 22/30/30 23/31/31
f 21/32/32 16/22/22 24/33/33
f 21/32/32 24/33/33 22/34/34
f 14/18/18 25/35/35 26/36/36
f 14/18/18 26/36/36 27/37/37
f 25/38/38 28/39/39 29/40/40
f 25/38/38 29/40/40 26/41/41
f 28/39/39 30/42/42 31/43/43
f 28/39/39 31/43/43 32/44/44
f 30/45/45 15/20/20 23/31/31
f 30/45/45 23/31/31 31/46/46
f 32/44/44 33/47/47 34/48/48
f 32/44/44 34/48/48 35/49/49
f 33/50/50 24/33/33 36/51/51
f 33/50/50 36/51/51 34/52/52
f 27/37/37 37/53/53 38/54/54
f 27/37/37 38/54/54 6/7/7
f 37/55/55 39/56/56 40/57/57
f 37/55/55 40/57/57 38/58/58
f 39/56/56 41/59/59 42/60/60
f 39/56/56 42/60/60 43/61/61
f 41/62/62 29/40/40 35/49/49
f 41/62/62 35/49/49 42/63/63
f 43/61/61 44/64/64 45/65/65
f 43/61/61 45/65/65 46/66/66
f 44/67/67 36/51/51 19/25/25
f 44/67/67 19/25/25 45/68/68
f 4/4/4 47/69/69 48/70/70
f 4/4/4 48/70/70 20/27/27
f 47/71/71 40/57/57 46/66/66
f 47/71/71 46/66/66 48/72/72
f 7/9/9 10/12/12 23/31/31
f 7/9/9 23/31/31 15/20/20
f 28/39/39 32/44/44 35/49/49
f 28/39/39 35/49/49 29/40/40
f 39/56/56 43/61/61 46/66/66
f 39/56/56 46/66/66 40/57/57
f 4/4/4 20/27/27 11/14/14
f 4/4/4 11/14/14 1/1/1
f 16/22/22 19/25/25 36/51/51
f 16/22/22 36/51/51 24/33/33
f 6/7/7 5/6/6 14/18/18
f 6/7/7 14/18/18 27/37/37
f 12/16/16 5/6/6 49/73/73
f 5/6/6 2/5/5 49/73/73
f 2/2/2 1/1/1 49/74/74
f 1/1/1 8/13/13 49/74/74
f 8/10/10 7/9/9 49/75/75
f 7/9/9 12/19/19 49/75/75
f 9/15/15 11/14/14 50/76/76
f 11/14/14 17/26/26 50/76/76
f 17/23/23 16/22/22 50/77/77
f 16/22/22 21/32/32 50/77/77
f 21/29/29 10/12/12 50/78/78
f 10/12/12 9/11/11 50/78/78
f 30/42/42 28/39/39 51/79/79
f 28/39/39 25/38/38 51/79/79
f 25/35/35 14/18/18 51/80/80
f 14/18/18 13/17/17 51/80/80
f 13/21/21 15/20/20 51/81/81
f 15/20/20 30/45/45 51/81/81
f 22/34/34 24/33/33 52/82/82
f 24/33/33 33/50/50 52/82/82
f 33/47/47 32/44/44 52/83/83
f 32/44/44 31/43/43 52/83/83
f 31/46/46 23/31/31 52/84/84
f 23/31/31 22/30/30 52/84/84
f 41/59/59 39/56/56 53/85/85
f 39/56/56 37/55/55 53/85/85
f 37/53/53 27/37/37 53/86/86
f 27/37/37 26/36/36 53/86/86
f 26/41/41 29/40/40 53/87/87
f 29/40/40 41/62/62 53/87/87
f 34/52/52 36/51/51 54/88/88
f 36/51/51 44/67/67 54/88/88
f 44/64/64 43/61/61 54/89/89
f 43/61/61 42/60/60 54/89/89
f 42/63/63 35/49/49 54/90/90
f 35/49/49 34/48/48 54/90/90
f 47/69/69 4/4/4 55/91/91
f 4/4/4 3/3/3 55/91/91
f 3/8/8 6/7/7 55/92/92
f 6/7/7 38/54/54 55/92/92
f 38/58/58 40/57/57 55/93/93
f 40/57/57 47/71/71 55/93/93
f 45/68/68 19/25/25 56/94/94
f 19/25/25 18/24/24 56/94/94
f 18/28/28 20/27/27 56/95/95
f 20/27/27 48/70/70 56/95/95
f 48/72/72 46/66/66 56/96/96
f 46/66/66 45/65/65 56/96/96
s off
