# Apple ModelIO OBJ File: window
mtllib window.mtl
g polySurface15_polySurface15SG
v -0.163043 0.001944 -0.443578
v 0.169789 0.001944 -0.443578
v 0.169789 0.001944 0.402022
v -0.166746 0.001944 0.402022
v -0.050596 0.194809 0.334801
v -0.050596 0.194809 -0.376357
v -0.048315 1.19481 -0.463262
v -0.050596 1.19481 0.421706
v -0.170448 0.194809 -0.376357
v -0.166746 0.194809 0.334801
v -0.166746 1.19481 0.421706
v -0.170454 1.19481 -0.463262
v -0.166778 1.26346 0.505356
v -0.166746 0.107788 0.402689
v -0.166746 0.104161 0.399267
v -0.163099 1.26345 -0.530486
v -0.163044 0.107733 -0.444134
v -0.163346 0.104153 -0.440828
v -0.163064 0.100286 -0.438823
v -0.166725 0.100286 0.397268
v -0.163043 -0.00966 -0.543356
v 0.218309 -0.00966 -0.543356
v 0.230981 -0.008224 -0.531008
v -0.163043 0.095531 -0.443578
v -0.163043 0.09348 -0.543356
v -0.163043 0.109763 -0.525069
v -0.163043 0.101149 -0.450995
v 0.239623 -0.00966 -0.522041
v 0.239624 -0.00966 0.480485
v 0.230981 -0.008224 0.489452
v 0.218309 -0.00966 0.5018
v -0.166746 -0.00966 0.5018
v -0.166746 1.57818 0.505356
v -0.163067 1.57818 -0.530486
v 0.150495 1.2631 0.488485
v 0.306488 1.34953 0.488707
v 0.148687 1.57818 0.488482
v 0.306486 1.5027 0.488707
v 0.306534 1.5027 -0.529814
v 0.306532 1.34953 -0.529814
v 0.148639 1.57818 -0.53004
v 0.150447 1.2631 -0.530037
v 0.218309 0.091891 -0.543356
v 0.232642 0.100685 -0.53338
v 0.225658 0.10957 -0.523402
v 0.239624 0.091802 -0.522041
v 0.239624 0.091802 0.480485
v 0.218309 0.091891 0.5018
v -0.166746 0.09348 0.5018
v 0.169788 0.163887 0.356791
v 0.139937 0.194809 0.334801
v 0.224147 1.21566 0.453269
v 0.192502 1.19481 0.421706
v 0.139937 0.194809 -0.376357
v 0.169787 0.166028 -0.396825
v 0.224338 1.2162 -0.495654
v 0.191682 1.19481 -0.463262
v 0.244433 1.26299 0.488619
v 0.244382 1.26299 -0.529903
v 0.232642 0.100685 0.491824
v 0.225658 0.10957 0.481847
v -0.166746 0.109763 0.483513
v 0.219868 1.26302 0.488584
v 0.228528 1.26301 0.488596
v 0.228483 1.26389 -0.529926
v 0.219832 1.26408 -0.529938
v -0.166746 0.101156 0.409503
v -0.166746 0.095531 0.402022
v 0.175375 0.101214 0.410004
v 0.172244 0.105474 0.405503
v 0.163857 0.108304 0.402506
v 0.163855 0.108302 -0.444059
v 0.175375 0.101214 -0.451559
v 0.170112 0.115373 -0.43828
v 0.170157 0.108313 -0.439429
v 0.170158 0.108314 0.397875
v 0.170111 0.115338 0.396725
v 0.172244 0.105474 -0.447058
vn -0 -1 0
vn 0.999998 -0.00114 0.001429
vn -0.999989 -3e-06 0.004643
vn -1 4e-06 -0.00021
vn -1 3e-06 -0.000211
vn -0.999752 -0.022284 -9.1e-05
vn -0.998581 0.053258 1.5e-05
vn -0.99417 -0.008664 -0.107478
vn -0.994176 -0.008665 -0.107418
vn -0.998699 -0.026894 -0.043324
vn -0.999234 -0.039142 1e-06
vn -0.999852 -0.017022 -0.00248
vn -0.999852 -0.017015 -0.002474
vn -0 -0.993305 0.11552
vn -1 0 -0
vn -0.999992 -6e-06 -0.003909
vn -1 -3.9e-05 -6.1e-05
vn -0.163917 -0.986474 0
vn -0 -0.993305 -0.11552
vn -0.999994 0.000103 -0.003551
vn -0.001426 2e-06 0.999999
vn 0.001431 -1e-06 -0.999999
vn 0.431424 0.902149 -0
vn 0.431424 0.90215 -0
vn 0 1 -0
vn 0.029349 -0.064899 0.99746
vn 0.026753 -0.071709 0.997067
vn 0.053259 0.000155 0.998581
vn 0.001429 -1e-06 -0.999999
vn 0.001046 -0.066331 -0.997797
vn 0.001083 -0.060002 -0.998198
vn 1 -0 4.5e-05
vn 0 -1 5.3e-05
vn 0 -0 0
vn 0.001101 0.999999 1e-05
vn 0.003167 0.747395 -0.664373
vn 0 -1e-06 -1
vn 1 -4e-06 -0
vn 0 0 1
vn 0.659411 0.032764 -0.751068
vn 0.707096 0.707117 0.001033
vn 0.54908 -0.835769 -0.000436
vn 0.549081 -0.835769 -0.000436
vn 0.647753 0.035361 0.761029
vn 0.919161 -0.393882 -4.4e-05
vn 0 0.086579 0.996245
vn 0 0.086579 -0.996245
vn 0.786205 0.617966 -0
vn 0.003137 0.747395 0.664373
vn 0.707111 -3e-06 -0.707103
vn 0.707093 -0.004772 -0.707105
vn 0.707086 -0.005928 -0.707103
vn 0.707107 0 0.707107
vn 0.707082 -0.005925 0.707107
vn 0.707089 -0.00477 0.707109
vn -0.698233 0.158 0.698217
vn 0.667065 -0.328969 -0.668434
vn -0.698249 0.15779 -0.698249
vn 0.667063 -0.328978 0.668432
vn 0.812468 -0.583006 -3e-06
vn -0.001424 0 0.999999
vn 0.031498 -0.079327 0.996351
vn 0.21062 -0.048191 0.976379
vn 0.001431 -0 -0.999999
vn 0.216129 -0.048935 -0.975138
vn 0.009991 -0.073419 -0.997251
vn -1 -2e-06 -5e-06
vn -0.999992 -0 -0.003901
vn -0.99999 0 -0.004378
vn -0.000942 0.721488 0.692426
vn 0.00152 0.721498 0.692415
vn 0.002642 0.721501 0.692408
vn 0.023565 -0.080532 0.996473
vn 0.02809 -0.08072 0.996341
vn 0.000999 -0.074359 -0.997231
vn 0.005829 -0.074624 -0.997195
vn 0 0.993305 0.115521
vn -0.11088 0.993111 0.037892
vn -0.087605 0.994671 0.054364
vn -0.110533 0.99314 -0.038139
vn -0.087209 0.99469 -0.054644
vn 0 0.993305 -0.115521
vn 0.999979 0.006522 8e-06
vn 0.805768 0.592232 -1e-06
vn 0.002442 0.723788 -0.690018
vn 0.0013 0.723792 -0.690016
vn -0.001197 0.7238 -0.690009
vn 0.395996 -0.090308 0.913801
vn 0.396511 -0.090061 -0.913602
vn 0.451606 0.645662 0.615769
vn 0.452036 0.644341 -0.616837
vn 0.997101 -0.045955 0.060648
vn 0.996964 -0.045722 -0.06303
vt 0.079634 0.746097
vt 0.174376 0.746097
vt 0.174376 0.986802
vt 0.07858 0.986802
vt 0.241366 0.457711
vt 0.443801 0.457711
vt 0.468539 0.742365
vt 0.216628 0.742365
vt 0.0494 0.060195
vt 0.251834 0.060195
vt 0.276572 0.34485
vt 0.024662 0.34485
vt 0.300384 0.364391
vt 0.271159 0.035424
vt 0.270185 0.034392
vt 0.005526 0.36439
vt 0.030106 0.035408
vt 0.031048 0.034389
vt 0.031618 0.033289
vt 0.269616 0.033289
vt 0.869629 0.433065
vt 0.774887 0.433065
vt 0.774887 0.404663
vt 0.88344 0.404663
vt 0.887048 0.408178
vt 0.001863 0.001992
vt 0.030265 0.005295
vt 0.030265 0.031935
vt 0.001863 0.031351
vt 0.007068 0.035986
vt 0.028153 0.033534
vt 0.869629 0.673769
vt 0.889508 0.41073
vt 0.889508 0.696104
vt 0.887048 0.698656
vt 0.773833 0.673769
vt 0.88344 0.702171
vt 0.773833 0.702171
vt 0.300384 0.453979
vt 0.005526 0.453979
vt 0.536989 0.330856
vt 0.581393 0.355461
vt 0.536475 0.420547
vt 0.581393 0.399059
vt 0.440045 0.023479
vt 0.440045 0.067078
vt 0.3951 0.001992
vt 0.395614 0.091683
vt 0.564064 0.429082
vt 0.608983 0.429018
vt 0.564051 0.719009
vt 0.608996 0.718945
vt 0.474275 0.424279
vt 0.475322 0.719136
vt 0.446676 0.330959
vt 0.446685 0.420547
vt 0.306371 0.001992
vt 0.306362 0.091581
vt 0.588812 0.400931
vt 0.588812 0.357332
vt 0.878739 0.357332
vt 0.878739 0.400931
vt 0.891419 0.001992
vt 0.886234 0.044779
vt 0.885841 0.200455
vt 0.891275 0.243953
vt 0.891419 0.368439
vt 0.764016 0.702171
vt 0.655462 0.702171
vt 0.655462 0.696966
vt 0.768096 0.699332
vt 0.766108 0.696491
vt 0.277206 0.854651
vt 0.277658 0.746097
vt 0.306565 0.746097
vt 0.306565 0.854651
vt 0.614733 0.41073
vt 0.643614 0.41073
vt 0.643614 0.696104
vt 0.614733 0.696104
vt 0.240761 0.746097
vt 0.269668 0.746097
vt 0.27012 0.855705
vt 0.240761 0.855705
vt 0.626363 0.019832
vt 0.632622 0.028634
vt 0.5989 0.319224
vt 0.607884 0.313289
vt 0.835057 0.028634
vt 0.840883 0.020441
vt 0.869016 0.319379
vt 0.859795 0.313289
vt 0.588838 0.332697
vt 0.878765 0.332697
vt 0.234862 0.746097
vt 0.234862 0.948532
vt 0.180626 0.948532
vt 0.180626 0.746097
vt 0.196162 0.457711
vt 0.210891 0.742365
vt 0.142575 0.742365
vt 0.141926 0.457711
vt 0.070828 0.746097
vt 0.071062 0.998008
vt 0.002512 0.746097
vt 0.001863 0.998008
vt 0.136189 0.457711
vt 0.121226 0.742365
vt 0.06699 0.742365
vt 0.06699 0.457711
vt 0.646143 0.407502
vt 0.646143 0.699332
vt 0.648672 0.696491
vt 0.648672 0.410342
vt 0.654409 0.404663
vt 0.764016 0.404663
vt 0.768096 0.407502
vt 0.654409 0.409868
vt 0.766108 0.410342
vt 0.614733 0.404663
vt 0.64364 0.404662
vt 0.614733 0.702171
vt 0.64364 0.702171
vt 0.313651 0.746097
vt 0.31406 0.74865
vt 0.313651 0.752165
vt 0.32094 0.746097
vt 0.321349 0.749612
vt 0.32094 0.752165
vt 0.563729 0.330825
vt 0.556737 0.330833
vt 0.559202 0.33083
vt 0.422354 0.091713
vt 0.417828 0.091456
vt 0.415365 0.091404
vt 0.273099 0.033536
vt 0.270969 0.031935
vt 0.270969 0.005295
vt 0.299371 0.001992
vt 0.299371 0.031351
vt 0.294166 0.035986
vt 0.654408 0.432875
vt 0.654409 0.430935
vt 0.751795 0.430793
vt 0.750904 0.432074
vt 0.748516 0.432927
vt 0.446685 0.001992
vt 0.540793 0.002139
vt 0.306378 0.420562
vt 0.399431 0.4204
vt 0.655462 0.67588
vt 0.751795 0.676041
vt 0.852684 0.006022
vt 0.853011 0.004013
vt 0.614668 0.004013
vt 0.614995 0.006012
vt 0.612497 0.003205
vt 0.855182 0.003205
vt 0.856464 0.001992
vt 0.611216 0.001992
vt 0.748516 0.673906
vt 0.750904 0.67476
vt 0.655462 0.673927
vt 0.542573 0.004141
vt 0.401212 0.418388
vt 0.750296 0.434573
vt 0.75031 0.434245
vt 0.750297 0.672261
vt 0.750309 0.672588
vt 0.923376 0.685527
vt 0.895244 0.38659
vt 0.907045 0.372171
vt 0.933132 0.699102
vt 0.588844 0.332702
usemtl polySurface15SG
f 1/1/1 2/2/1 3/3/1
f 1/1/1 3/3/1 4/4/1
f 5/5/2 6/6/2 7/7/2
f 5/5/2 7/7/2 8/8/2
f 9/9/3 10/10/3 11/11/3
f 9/9/3 11/11/3 12/12/3
f 13/13/4 11/11/4 10/10/4
f 14/14/5 13/13/4 10/10/4
f 15/15/6 14/14/5 10/10/4
f 12/12/7 11/11/7 16/16/7
f 11/11/7 13/13/7 16/16/7
f 9/9/8 12/12/8 16/16/8
f 9/9/8 16/16/8 17/17/9
f 9/9/8 17/17/9 18/18/10
f 10/10/11 9/9/11 18/18/10
f 10/10/11 18/18/10 19/19/12
f 10/10/11 19/19/12 20/20/13
f 10/10/11 20/20/13 15/15/6
f 2/21/14 1/22/14 21/23/14
f 2/21/14 21/23/14 22/24/14
f 2/21/14 22/24/14 23/25/14
f 21/26/15 1/27/15 24/28/16
f 25/29/15 21/26/15 24/28/16
f 26/30/15 25/29/15 24/28/16
f 27/31/17 26/30/15 24/28/16
f 3/32/18 2/21/18 23/25/18
f 3/32/18 23/25/18 28/33/18
f 3/32/18 28/33/18 29/34/18
f 3/32/18 29/34/18 30/35/18
f 4/36/19 3/32/19 30/35/19
f 4/36/19 30/35/19 31/37/19
f 4/36/19 31/37/19 32/38/19
f 16/16/20 13/13/20 33/39/20
f 16/16/20 33/39/20 34/40/20
f 35/41/21 36/42/21 37/43/21
f 36/42/21 38/44/21 37/43/21
f 39/45/22 40/46/22 41/47/22
f 40/46/22 42/48/22 41/47/22
f 37/49/23 38/50/23 41/51/24
f 38/50/23 39/52/24 41/51/24
f 33/53/25 37/49/25 41/51/25
f 33/53/25 41/51/25 34/54/25
f 13/55/26 35/41/27 33/56/28
f 35/41/27 37/43/28 33/56/28
f 41/47/29 42/48/30 34/57/29
f 42/48/30 16/58/31 34/57/29
f 38/59/32 36/60/32 40/61/32
f 38/59/32 40/61/32 39/62/32
f 1/63/33 2/64/34 2/64/34
f 1/63/33 2/64/34 1/63/33
f 2/64/34 3/65/34 3/65/34
f 2/64/34 3/65/34 2/64/34
f 3/65/34 4/66/34 4/66/34
f 3/65/34 4/66/34 3/65/34
f 4/66/34 1/67/35 1/67/35
f 4/66/34 1/67/35 4/66/34
f 43/68/36 25/69/36 26/70/36
f 44/71/36 43/68/36 26/70/36
f 45/72/36 44/71/36 26/70/36
f 25/73/37 43/74/37 22/75/37
f 25/73/37 22/75/37 21/76/37
f 28/77/38 46/78/38 47/79/38
f 28/77/38 47/79/38 29/80/38
f 31/81/39 48/82/39 49/83/39
f 31/81/39 49/83/39 32/84/39
f 50/85/40 51/86/40 52/87/40
f 51/86/40 53/88/40 52/87/40
f 51/86/41 50/85/41 54/89/41
f 50/85/41 55/90/41 54/89/41
f 52/87/42 53/88/43 56/91/42
f 53/88/43 57/92/42 56/91/42
f 56/91/44 57/92/44 54/89/44
f 56/91/44 54/89/44 55/90/44
f 52/87/45 56/91/45 58/93/45
f 56/91/45 59/94/45 58/93/45
f 51/95/25 54/96/25 6/97/25
f 51/95/25 6/97/25 5/98/25
f 54/99/46 57/100/46 7/101/46
f 54/99/46 7/101/46 6/102/46
f 57/103/1 53/104/1 7/105/1
f 53/104/1 8/106/1 7/105/1
f 53/107/47 51/108/47 5/109/47
f 53/107/47 5/109/47 8/110/47
f 47/79/48 46/78/48 44/111/48
f 60/112/48 47/79/48 44/111/48
f 61/113/48 60/112/48 44/111/48
f 45/114/48 61/113/48 44/111/48
f 49/115/49 48/116/49 60/117/49
f 62/118/49 49/115/49 60/117/49
f 61/119/49 62/118/49 60/117/49
f 28/77/50 22/120/50 43/121/51
f 28/77/50 43/121/51 46/78/52
f 31/122/53 29/80/53 47/79/54
f 31/122/53 47/79/54 48/123/55
f 28/124/56 23/125/56 22/126/56
f 43/121/51 44/111/57 46/78/52
f 31/127/58 30/128/58 29/129/58
f 47/79/54 60/112/59 48/123/55
f 36/60/60 58/93/60 59/94/60
f 36/60/60 59/94/60 40/61/60
f 58/130/61 36/42/61 35/41/27
f 58/130/61 35/41/27 63/131/62
f 58/130/61 63/131/62 64/132/63
f 40/46/64 59/133/64 65/134/65
f 40/46/64 65/134/65 66/135/66
f 40/46/64 66/135/66 42/48/30
f 67/136/67 68/137/68 4/138/15
f 67/136/67 4/138/15 32/139/15
f 67/136/67 32/139/15 49/140/15
f 67/136/67 49/140/15 62/141/15
f 4/138/69 68/137/68 20/20/13
f 1/27/69 4/138/69 20/20/13
f 24/28/16 1/27/69 20/20/13
f 19/19/12 24/28/16 20/20/13
f 14/142/70 67/143/70 69/144/70
f 14/142/70 69/144/70 70/145/71
f 14/142/70 70/145/71 71/146/72
f 13/55/26 14/147/73 71/148/74
f 35/41/27 13/55/26 71/148/74
f 63/131/62 35/41/27 71/148/74
f 17/149/75 16/58/31 42/48/30
f 72/150/76 17/149/75 42/48/30
f 66/135/66 72/150/76 42/48/30
f 27/151/77 73/152/78 26/70/77
f 73/152/78 45/72/79 26/70/77
f 73/152/78 69/144/80 61/119/81
f 73/152/78 61/119/81 45/72/79
f 69/144/80 67/143/82 62/118/82
f 69/144/80 62/118/82 61/119/81
f 74/153/83 55/90/83 50/85/83
f 75/154/83 74/153/83 50/85/83
f 76/155/83 75/154/83 50/85/83
f 77/156/83 76/155/83 50/85/83
f 75/154/84 76/155/84 70/157/84
f 78/158/84 75/154/84 70/157/84
f 73/159/84 78/158/84 70/157/84
f 69/160/84 73/159/84 70/157/84
f 72/161/85 78/162/86 73/152/87
f 72/161/85 73/152/87 27/151/87
f 72/161/85 27/151/87 17/163/87
f 64/132/63 63/131/62 71/148/74
f 64/132/63 71/148/74 77/164/88
f 66/135/66 65/134/65 72/150/76
f 65/134/65 74/165/89 72/150/76
f 77/166/90 71/146/72 76/167/90
f 71/146/72 70/145/71 76/167/90
f 74/168/91 75/169/91 72/161/85
f 75/169/91 78/162/86 72/161/85
f 56/170/92 55/171/92 74/172/92
f 56/170/92 74/172/92 65/173/92
f 50/85/93 52/87/93 77/156/93
f 52/87/93 64/174/93 77/156/93
s off
