# Apple ModelIO OBJ File: beam
mtllib beam.mtl
g polySurface16_beams3SG
v -0.156095 5.00387 0.293015
v -0.156095 0.003874 0.293015
v 0.162107 0.003874 0.293015
v 0.162107 5.00387 0.293015
v -0.156095 0.003874 -0.206985
v -0.156095 5.00387 -0.206985
v 0.162107 5.00387 -0.206985
v 0.162107 0.003874 -0.206985
v 0.253006 5.00387 0.202116
v 0.253006 0.003874 0.202116
v 0.253006 0.003874 -0.116085
v 0.253006 5.00387 -0.116085
v -0.246994 5.00387 -0.116085
v -0.246994 0.003874 -0.116085
v -0.246994 0.003874 0.202116
v -0.246994 5.00387 0.202116
v -0.235747 5.00387 0.22927
v -0.235747 0.003874 0.22927
v -0.183249 0.003874 0.281768
v -0.183249 5.00387 0.281768
v 0.189261 5.00387 0.281768
v 0.189261 0.003874 0.281768
v 0.241758 0.003874 0.22927
v 0.241758 5.00387 0.22927
v -0.235747 0.003874 -0.14324
v -0.235747 5.00387 -0.14324
v -0.183249 5.00387 -0.195737
v -0.183249 0.003874 -0.195737
v 0.189261 0.003874 -0.195737
v 0.189261 5.00387 -0.195737
v 0.241758 5.00387 -0.14324
v 0.241758 0.003874 -0.14324
vn -0.032551 0 0.99947
vn 0.032551 0 0.99947
vn -0.032551 0 -0.99947
vn 0.032551 0 -0.99947
vn 0.99947 0 0.032551
vn 0.99947 0 -0.032551
vn -0.99947 0 -0.032551
vn -0.99947 0 0.032551
vn -0.780757 0 0.624835
vn -0.624835 0 0.780757
vn 0.624835 0 0.780757
vn 0.780757 0 0.624835
vn -0.780757 0 -0.624835
vn -0.624835 0 -0.780757
vn 0.624835 0 -0.780757
vn 0.780757 0 -0.624835
vn 0 -1 0
vn 0 1 0
vt 0.006553 0.998008
vt 0.006553 0.001992
vt 0.06994 0.001992
vt 0.06994 0.998008
vt 0.087265 0.998008
vt 0.087265 0.001992
vt 0.150651 0.001992
vt 0.150651 0.998008
vt 0.178251 0.998008
vt 0.178251 0.001992
vt 0.241638 0.001992
vt 0.241638 0.998008
vt 0.280742 0.998008
vt 0.280742 0.001992
vt 0.344128 0.001992
vt 0.344128 0.998008
vt 0.349538 0.998008
vt 0.349538 0.001992
vt 0.359995 0.001992
vt 0.359995 0.998008
vt 0.162384 0.998008
vt 0.162384 0.001992
vt 0.172842 0.001992
vt 0.172842 0.998008
vt 0.275332 0.001992
vt 0.275332 0.998008
vt 0.264875 0.998008
vt 0.264875 0.001992
vt 0.257504 0.001992
vt 0.257504 0.998008
vt 0.247047 0.998008
vt 0.247047 0.001992
vt 0.44886 0.101594
vt 0.385473 0.101594
vt 0.380064 0.099353
vt 0.454269 0.099353
vt 0.464727 0.088895
vt 0.466967 0.083486
vt 0.466967 0.0201
vt 0.464727 0.01469
vt 0.454269 0.004233
vt 0.44886 0.001992
vt 0.385473 0.001992
vt 0.380064 0.004233
vt 0.369606 0.01469
vt 0.367366 0.0201
vt 0.367366 0.083486
vt 0.369606 0.088895
vt 0.555011 0.101594
vt 0.491624 0.101594
vt 0.486215 0.099353
vt 0.56042 0.099353
vt 0.570878 0.088895
vt 0.573118 0.083486
vt 0.573118 0.020099
vt 0.570878 0.01469
vt 0.56042 0.004233
vt 0.555011 0.001992
vt 0.491624 0.001992
vt 0.486215 0.004233
vt 0.475757 0.01469
vt 0.473517 0.020099
vt 0.473517 0.083486
vt 0.475757 0.088895
vt 0.001144 0.001992
vt 0.001144 0.998008
vt 0.075349 0.001992
vt 0.075349 0.998008
vt 0.081855 0.001992
vt 0.081855 0.998008
vt 0.156061 0.001992
vt 0.156061 0.998008
usemtl beams3SG
f 1/1/1 2/2/1 3/3/2
f 1/1/1 3/3/2 4/4/2
f 5/5/3 6/6/3 7/7/4
f 5/5/3 7/7/4 8/8/4
f 9/9/5 10/10/5 11/11/6
f 9/9/5 11/11/6 12/12/6
f 13/13/7 14/14/7 15/15/8
f 13/13/7 15/15/8 16/16/8
f 17/17/9 18/18/9 19/19/10
f 17/17/9 19/19/10 20/20/10
f 21/21/11 22/22/11 23/23/12
f 21/21/11 23/23/12 24/24/12
f 25/25/13 26/26/13 27/27/14
f 25/25/13 27/27/14 28/28/14
f 29/29/15 30/30/15 31/31/16
f 29/29/15 31/31/16 32/32/16
f 15/33/17 14/34/17 25/35/17
f 18/36/17 15/33/17 25/35/17
f 19/37/17 18/36/17 25/35/17
f 2/38/17 19/37/17 25/35/17
f 3/39/17 2/38/17 25/35/17
f 22/40/17 3/39/17 25/35/17
f 23/41/17 22/40/17 25/35/17
f 10/42/17 23/41/17 25/35/17
f 11/43/17 10/42/17 25/35/17
f 32/44/17 11/43/17 25/35/17
f 29/45/17 32/44/17 25/35/17
f 8/46/17 29/45/17 25/35/17
f 5/47/17 8/46/17 25/35/17
f 28/48/17 5/47/17 25/35/17
f 13/49/18 16/50/18 17/51/18
f 26/52/18 13/49/18 17/51/18
f 27/53/18 26/52/18 17/51/18
f 6/54/18 27/53/18 17/51/18
f 7/55/18 6/54/18 17/51/18
f 30/56/18 7/55/18 17/51/18
f 31/57/18 30/56/18 17/51/18
f 12/58/18 31/57/18 17/51/18
f 9/59/18 12/58/18 17/51/18
f 24/60/18 9/59/18 17/51/18
f 21/61/18 24/60/18 17/51/18
f 4/62/18 21/61/18 17/51/18
f 1/63/18 4/62/18 17/51/18
f 20/64/18 1/63/18 17/51/18
f 19/65/10 2/2/1 1/1/1
f 19/65/10 1/1/1 20/66/10
f 3/3/2 22/67/11 21/68/11
f 3/3/2 21/68/11 4/4/2
f 27/69/14 6/6/3 5/5/3
f 27/69/14 5/5/3 28/70/14
f 7/7/4 30/71/15 29/72/15
f 7/7/4 29/72/15 8/8/4
f 23/23/12 10/10/5 9/9/5
f 23/23/12 9/9/5 24/24/12
f 31/31/16 12/12/6 11/11/6
f 31/31/16 11/11/6 32/32/16
f 13/13/7 26/26/13 25/25/13
f 13/13/7 25/25/13 14/14/7
f 15/15/8 18/18/9 17/17/9
f 15/15/8 17/17/9 16/16/8
s off
